<svg width="13" height="8" viewBox="0 0 13 8" fill="none" xmlns="http://www.w3.org/2000/svg">
<path fill-rule="evenodd" clip-rule="evenodd" d="M7.45488 6.39223L13 8L11.6198 2.3939L9.89804 4.0468L7.12069 1.15373C7.02641 1.05552 6.89615 1 6.76 1C6.62385 1 6.49359 1.05552 6.39931 1.15373L4.36 3.27801L1.36069 0.153734C1.16946 -0.0454712 0.85294 -0.0519314 0.653735 0.139307C0.454529 0.330544 0.44807 0.64706 0.639307 0.846266L3.99931 4.34627C4.09359 4.44448 4.22385 4.5 4.36 4.5C4.49615 4.5 4.62641 4.44448 4.72069 4.34627L6.76 2.22199L9.17665 4.73933L7.45488 6.39223Z" fill="#FF5D5D"/>
</svg>
