<!-- tortoise.svg -->
<svg width="20" height="20" viewBox="0 0 16 16" xmlns="http://www.w3.org/2000/svg">
<path d="M7.99247 16.3504C12.264 16.3504 15.7896 12.8248 15.7896 8.56083C15.7896 4.29687 12.2564 0.771205 7.98493 0.771205C3.72098 0.771205 0.202846 4.29687 0.202846 8.56083C0.202846 12.8248 3.72852 16.3504 7.99247 16.3504ZM7.99247 14.7985C4.5346 14.7985 1.76981 12.0187 1.76981 8.56083C1.76981 5.10296 4.5346 2.33064 7.98493 2.33064C11.4428 2.33064 14.2227 5.10296 14.2302 8.56083C14.2377 12.0187 11.4503 14.7985 7.99247 14.7985ZM4.73047 9.06557C4.73047 9.26897 4.89621 9.41964 5.10714 9.41964H7.57059L6.25977 12.9302C6.0639 13.4425 6.60631 13.7213 6.94531 13.3145L11.0059 8.27455C11.0887 8.17662 11.1339 8.06362 11.1339 7.95815C11.1339 7.75474 10.9682 7.61161 10.7648 7.61161H8.29381L9.60463 4.09347C9.8005 3.58873 9.25809 3.30246 8.91909 3.70926L4.86607 8.7567C4.77567 8.85463 4.73047 8.96763 4.73047 9.06557Z" fill="#9F9F9F"/>
</svg>