<!-- tortoise.svg -->
<svg width="20" height="20" viewBox="0 0 16 16" xmlns="http://www.w3.org/2000/svg">
<path d="M5.76869 15.3605C6.98033 15.3605 8.12291 15.0529 8.98926 14.2619C9.3471 14.5255 9.75516 14.6511 10.3202 14.6511C10.8538 14.6511 11.2995 14.4879 12.0152 14.4879C12.6995 14.4879 13.0825 14.6636 13.6412 14.6636C14.947 14.6636 15.4806 13.9794 15.4806 13.2009C15.4806 12.0395 14.5578 11.2422 12.8188 11.0664C13.3963 10.7713 13.9488 10.5453 14.338 10.3884C15.0851 10.8718 16.1963 11.1731 16.9936 11.1669C18.7891 11.1543 19.8312 10.5767 19.8312 8.85031C19.8312 6.69699 18.2241 5.07729 16.2402 5.02706L14.8968 3.16253C13.8735 1.76256 12.7372 0.977818 11.2493 0.977818C10.113 0.977818 8.61258 1.59933 8.61258 2.55985C8.61258 3.27553 9.34082 3.76521 10.1695 4.29883C11.0547 4.86384 12.4609 5.70508 13.5345 6.33915C13.3963 6.45843 13.2833 6.51493 13.139 6.51493C12.9255 6.51493 12.5991 6.39565 12.26 6.1822C9.79283 4.81989 8.26102 3.60826 6.27093 3.60826C3.97949 3.60826 2.31585 4.79478 1.51855 7.09249C0.702427 7.25572 0.168806 7.78934 0.168806 8.59919C0.168806 9.58482 0.953544 10.1184 1.81989 10.1498C2.44141 11.1669 4.09877 12.0081 6.18931 11.8386L6.7041 12.2843C6.52204 12.3659 6.34626 12.3848 6.15792 12.3848C5.66825 12.3785 5.2853 12.2529 4.8019 12.2529C3.89788 12.2529 3.27009 12.7928 3.27009 13.5964C3.27009 14.7139 4.26828 15.3605 5.76869 15.3605ZM11.9775 13.4583C11.243 13.4583 10.6592 13.565 10.3453 13.565C10.0565 13.565 9.774 13.5273 9.49777 13.2951L6.67899 10.7902C4.65123 10.8906 3.22614 10.3758 2.38491 9.17048C1.76339 9.23326 1.31138 9.00098 1.31138 8.5113C1.31138 8.05301 1.74456 7.75167 2.40374 7.77679C3.05036 5.70508 4.38128 4.73828 6.25837 4.73828C8.28613 4.73828 10.2323 6.32659 11.8834 7.21805C12.3605 7.48172 12.8627 7.58217 13.2017 7.58217C13.9802 7.58217 14.564 7.09877 14.9658 6.16336L10.835 3.52037C10.4143 3.26297 9.89328 2.85491 9.89328 2.69168C9.89328 2.33384 10.6717 2.08273 11.2619 2.08273C12.2287 2.08273 13.0197 2.64146 13.7605 3.52037L15.7506 5.88086C17.5272 5.81808 18.8205 7.15527 18.8205 8.85658C18.8205 9.91755 18.3371 10.2314 17.025 10.2314C16.2277 10.2314 15.3111 9.91755 14.5013 9.4216C13.321 9.72921 12.1031 10.3193 11.1865 11.0601C11.0547 11.0727 10.9542 11.0852 10.8601 11.1041L10.4143 9.98033C9.49777 7.72028 7.96596 6.88532 6.3651 6.88532C6.1077 6.88532 5.81264 6.8916 5.54269 6.9481C5.19741 7.02972 5.06557 7.19294 5.06557 7.41895C5.06557 7.70773 5.27902 7.89607 5.58036 7.88979C5.83147 7.88351 6.03864 7.84584 6.33371 7.84584C7.7274 7.84584 8.71931 8.60547 9.59821 10.627L10.2323 12.1274C10.7282 12.0269 11.2179 11.9453 12.0152 11.9453C13.2582 11.9453 14.3757 12.3032 14.3757 13.0879C14.3757 13.3892 14.112 13.6152 13.6412 13.6152C13.0197 13.6152 12.5551 13.4583 11.9775 13.4583ZM16.5981 8.46735C16.9182 8.46735 17.1819 8.20368 17.1819 7.88979C17.1819 7.56961 16.9182 7.30594 16.5981 7.30594C16.2842 7.30594 16.0205 7.56961 16.0205 7.88979C16.0205 8.20368 16.2842 8.46735 16.5981 8.46735ZM4.34361 13.609C4.34361 13.3641 4.50684 13.1821 4.84584 13.1821C5.21624 13.1821 5.60547 13.2888 6.06376 13.2888C6.6476 13.2888 7.09333 13.226 7.49512 12.9749L8.22335 13.609C7.6709 14.1175 6.78571 14.3937 5.76242 14.3937C4.90862 14.3937 4.34361 14.0924 4.34361 13.609Z" fill="#9F9F9F"/>
</svg>