<!-- tortoise.svg -->
<svg width="20" height="20" viewBox="0 0 16 16" xmlns="http://www.w3.org/2000/svg">
<path d="M2.57966 11.975C3.91936 11.975 5.2936 11.4157 6.3847 10.3453C7.15123 10.7389 7.94538 11.0773 9.0572 11.0773C10.245 11.0773 11.0529 10.7942 11.7504 10.442C12.8139 11.4364 14.1605 11.9888 15.4657 11.9888C16.5982 11.9888 17.4407 11.5123 17.4407 10.656C17.4407 9.79283 16.7501 9.47517 15.9076 9.24728C15.8041 9.22656 15.7074 9.19894 15.6038 9.17132C18.1175 8.96415 18.4904 7.5761 20.5206 7.5761C22.475 7.5761 23.8906 6.87863 23.8906 5.55964C23.8906 2.78355 22.3092 1.23668 20.3894 1.23668C18.4835 1.23668 17.4131 2.41064 17.0056 4.06111C16.7985 4.83454 16.4463 5.32485 15.9007 5.62179L15.5209 4.91741C13.6633 1.506 11.9438 0.131767 9.14007 0.124861C6.143 0.131767 4.54778 1.45766 2.37249 5.57345C1.62667 6.98912 0.466518 7.25153 0.466518 8.14237C0.466518 8.77769 0.963728 9.19894 1.9029 9.19894H2.30343C2.15151 9.24037 2.00649 9.28181 1.86837 9.33015C1.15709 9.55804 0.611537 9.88951 0.611537 10.6422C0.611537 11.4916 1.44713 11.975 2.57966 11.975ZM9.14007 1.42313C10.9079 1.43004 12.0612 2.17585 13.028 3.38435C11.9162 4.2959 10.5765 4.80001 9.0572 4.80001C7.55866 4.80001 6.23968 4.31662 5.14858 3.43269C6.28802 1.95487 7.42746 1.43004 9.14007 1.42313ZM17.3924 7.5692C17.1092 7.34131 16.7916 6.9615 16.5913 6.59549C17.3371 6.32617 17.8205 5.79443 18.1037 4.6619C18.4144 3.26695 19.1464 2.4728 20.3894 2.4728C21.6601 2.4728 22.7028 3.66058 22.7028 5.38009C22.7028 5.96017 21.736 6.37451 20.7416 6.37451C19.0359 6.37451 18.2487 6.98912 17.3924 7.5692ZM20.6242 4.95194C20.9695 4.95194 21.2596 4.6619 21.2596 4.30971C21.2596 3.96443 20.9695 3.67439 20.6242 3.67439C20.272 3.67439 19.982 3.96443 19.982 4.30971C19.982 4.6619 20.272 4.95194 20.6242 4.95194ZM14.4574 5.61489C14.9339 6.47119 15.4588 7.32059 16.0458 7.87995C15.7902 7.88686 15.5002 7.88686 15.2033 7.89376C14.2434 7.91448 13.5114 8.12856 12.8691 8.40479C12.2131 7.53467 11.7228 6.26402 11.6123 5.35247C12.3857 5.06243 13.0556 4.65499 13.615 4.19922C13.905 4.63428 14.1812 5.11077 14.4574 5.61489ZM3.09068 7.89376C2.77992 7.89376 2.46226 7.90067 2.15151 7.91448L2.10317 7.8178C2.56585 7.41727 3.09759 6.94768 3.51193 6.13281C3.88484 5.41462 4.23012 4.79311 4.5754 4.26137C5.13477 4.71024 5.82533 5.11768 6.6333 5.40081C6.50209 6.28474 6.00488 7.54157 5.39028 8.39097C4.75495 8.10784 4.02295 7.89376 3.09068 7.89376ZM9.0572 9.77902C7.92466 9.77902 7.1236 9.30253 6.25349 8.81913C6.88191 7.92829 7.37221 6.66455 7.50342 5.64941C7.98682 5.753 8.50474 5.80825 9.0572 5.80825C9.65109 5.80825 10.2104 5.73919 10.7284 5.62179C10.832 6.67146 11.3292 7.94901 11.9852 8.83984C11.0944 9.30943 10.2726 9.77902 9.0572 9.77902ZM1.74407 10.4834C1.74407 10.2486 1.91671 10.0967 2.40702 9.97238C2.70396 9.89641 3.51883 9.64781 4.14035 9.36468C4.5685 9.47517 4.95522 9.62709 5.32122 9.79973C4.31989 10.6077 3.42906 10.9737 2.62109 10.9737C2.04102 10.9737 1.74407 10.7872 1.74407 10.4834ZM15.6452 9.98619C16.1286 10.1105 16.3082 10.2693 16.3082 10.4972C16.3082 10.8011 16.0043 10.9875 15.4312 10.9875C14.637 10.9875 13.7669 10.6422 12.7932 9.86879C13.1454 9.68234 13.5045 9.50279 13.9188 9.38539C14.5334 9.66162 15.3483 9.91023 15.6452 9.98619Z" fill="#9F9F9F"/>
</svg>
